<svg id="Layer_1" data-name="Layer 1" xmlns="http://www.w3.org/2000/svg" xmlns:xlink="http://www.w3.org/1999/xlink" viewBox="0 0 318 318"><defs><style>.cls-1{fill:url(#New_Gradient_Swatch_3);}.cls-2{fill:url(#New_Gradient_Swatch_3-2);}.cls-3{fill:url(#New_Gradient_Swatch_3-3);}.cls-4{fill:url(#New_Gradient_Swatch_3-4);}</style><linearGradient id="New_Gradient_Swatch_3" x1="-59.64" y1="247.61" x2="244.16" y2="-63.78" gradientUnits="userSpaceOnUse"><stop offset="0" stop-color="#808dab"/><stop offset="1" stop-color="#52628a"/></linearGradient><linearGradient id="New_Gradient_Swatch_3-2" x1="-106.8" y1="201.6" x2="197" y2="-109.79" xlink:href="#New_Gradient_Swatch_3"/><linearGradient id="New_Gradient_Swatch_3-3" x1="31.59" y1="328.91" x2="328.38" y2="24.69" xlink:href="#New_Gradient_Swatch_3"/><linearGradient id="New_Gradient_Swatch_3-4" x1="-18.51" y1="287.73" x2="285.28" y2="-23.66" xlink:href="#New_Gradient_Swatch_3"/></defs><path class="cls-1" d="M86.05,162.05,59.1,108.15l47.2-94.39h53.9Zm-20.24-53.9,20.24,40.49L150.49,19.76H110Z"/><path class="cls-2" d="M53.63,97.21,15.52,21A5,5,0,0,1,20,13.76H95.35Zm-31.29-76L53.63,83.79l32-64H23.23A1,1,0,0,0,22.34,21.21Z"/><path class="cls-3" d="M154.53,299,124,237.84,236,13.76h62A5,5,0,0,1,302.48,21l-139,278A5,5,0,0,1,154.53,299Zm-23.87-61.16,27.45,54.9a1,1,0,0,0,1.78,0L295.66,21.21a1,1,0,0,0-.89-1.45H239.7Z"/><path class="cls-4" d="M118.47,226.9,91.52,173,171.14,13.76H225ZM98.23,173l20.24,40.48L215.34,19.76H174.85Z"/></svg>