<svg id="Layer_1" data-name="Layer 1" xmlns="http://www.w3.org/2000/svg" xmlns:xlink="http://www.w3.org/1999/xlink" viewBox="0 0 512 318"><defs><style>.cls-1{fill:url(#linear-gradient);}.cls-2{fill:url(#linear-gradient-2);}.cls-3{fill:url(#linear-gradient-3);}.cls-4{fill:url(#linear-gradient-4);}.cls-5{fill:url(#linear-gradient-5);}.cls-6{fill:url(#linear-gradient-6);}.cls-7{fill:url(#linear-gradient-7);}.cls-8{fill:url(#linear-gradient-8);}.cls-9{fill:url(#linear-gradient-9);}.cls-10{fill:url(#linear-gradient-10);}.cls-11{fill:url(#linear-gradient-11);}.cls-12{fill:url(#linear-gradient-12);}.cls-13{fill:url(#linear-gradient-13);}.cls-14{fill:url(#linear-gradient-14);}.cls-15{fill:url(#linear-gradient-15);}.cls-16{fill:url(#linear-gradient-16);}.cls-17{fill:url(#linear-gradient-17);}.cls-18{fill:url(#linear-gradient-18);}.cls-19{fill:url(#linear-gradient-19);}</style><linearGradient id="linear-gradient" x1="-80.92" y1="228.94" x2="450.14" y2="-87.65" gradientUnits="userSpaceOnUse"><stop offset="0"/><stop offset="1" stop-color="#232323"/></linearGradient><linearGradient id="linear-gradient-2" x1="-104.36" y1="189.62" x2="426.7" y2="-126.97" xlink:href="#linear-gradient"/><linearGradient id="linear-gradient-3" x1="-35.84" y1="304.57" x2="495.22" y2="-12.03" xlink:href="#linear-gradient"/><linearGradient id="linear-gradient-4" x1="-60.16" y1="263.77" x2="470.9" y2="-52.82" xlink:href="#linear-gradient"/><linearGradient id="linear-gradient-5" x1="-25.88" y1="321.27" x2="505.18" y2="4.67" xlink:href="#linear-gradient"/><linearGradient id="linear-gradient-6" x1="-15.83" y1="338.13" x2="515.24" y2="21.54" xlink:href="#linear-gradient"/><linearGradient id="linear-gradient-7" x1="-9.11" y1="349.4" x2="521.95" y2="32.81" xlink:href="#linear-gradient"/><linearGradient id="linear-gradient-8" x1="-2.46" y1="360.56" x2="528.61" y2="43.96" xlink:href="#linear-gradient"/><linearGradient id="linear-gradient-9" x1="6.66" y1="375.86" x2="537.73" y2="59.26" xlink:href="#linear-gradient"/><linearGradient id="linear-gradient-10" x1="18.47" y1="395.67" x2="549.54" y2="79.08" xlink:href="#linear-gradient"/><linearGradient id="linear-gradient-11" x1="28.84" y1="413.05" x2="559.9" y2="96.46" xlink:href="#linear-gradient"/><linearGradient id="linear-gradient-12" x1="37.31" y1="427.27" x2="568.38" y2="110.68" xlink:href="#linear-gradient"/><linearGradient id="linear-gradient-13" x1="45.18" y1="440.47" x2="576.24" y2="123.87" xlink:href="#linear-gradient"/><linearGradient id="linear-gradient-14" x1="54.41" y1="455.96" x2="585.48" y2="139.36" xlink:href="#linear-gradient"/><linearGradient id="linear-gradient-15" x1="64.08" y1="472.17" x2="595.14" y2="155.58" xlink:href="#linear-gradient"/><linearGradient id="linear-gradient-16" x1="72.17" y1="485.74" x2="603.23" y2="169.14" xlink:href="#linear-gradient"/><linearGradient id="linear-gradient-17" x1="80.04" y1="498.95" x2="611.11" y2="182.35" xlink:href="#linear-gradient"/><linearGradient id="linear-gradient-18" x1="94.48" y1="523.16" x2="625.54" y2="206.57" xlink:href="#linear-gradient"/><linearGradient id="linear-gradient-19" x1="102.81" y1="537.14" x2="633.87" y2="220.54" xlink:href="#linear-gradient"/></defs><polygon class="cls-1" points="216.91 3.18 181.79 73.44 199.93 109.71 253.19 3.18 216.91 3.18"/><polygon class="cls-2" points="146.66 3.18 175 59.87 203.34 3.18 146.66 3.18"/><polygon class="cls-3" points="231.63 173.13 256 221.86 365.34 3.18 316.61 3.18 231.63 173.13"/><polygon class="cls-4" points="266.76 3.18 206.71 123.28 224.85 159.56 303.04 3.18 266.76 3.18"/><path class="cls-5" d="M2,284.83H7v17.66c0,2.94.55,5.06,1.65,6.38s2.84,2,5.24,2,4.1-.71,5.18-2.13a9.09,9.09,0,0,0,1.62-5.65V284.83h5v18q0,6.14-3.07,9.07c-2,1.95-5,2.93-8.74,2.93s-6.63-1-8.74-2.93S2,306.84,2,302.59Z"/><path class="cls-6" d="M36.65,284.83H41.1l12.37,17.66c.56.82,1.09,1.63,1.59,2.44s.92,1.55,1.27,2.2h.09c-.16-2.31-.23-4.61-.23-6.91V284.83H61v29.52H56.56l-12-17.11c-.6-.84-1.17-1.75-1.74-2.74s-1-1.86-1.45-2.64h-.09c.15,2.43.23,4.85.23,7.24v15.25H36.65Z"/><path class="cls-7" d="M77,284.83v29.52H72V284.83Z"/><path class="cls-8" d="M87.89,314.35V284.83h5v13l11.66-13h6.24L99,297.85l12.74,16.5h-6.27L95.39,301.13l-2.48,2.67v10.55Z"/><path class="cls-9" d="M122.68,314.35V284.83h5v13l11.67-13h6.23l-11.81,13,12.75,16.5h-6.28l-10.08-13.22-2.48,2.67v10.55Z"/><path class="cls-10" d="M176.81,284.83,182.53,301l.63,1.78c.24.66.48,1.34.73,2s.49,1.41.73,2.11.44,1.35.63,1.95h.09c.16-.6.35-1.23.57-1.9s.43-1.35.65-2,.44-1.34.66-2,.42-1.17.61-1.64l6-16.49H199l-11.25,29.52h-5.11l-11.15-29.52Z"/><path class="cls-11" d="M210,284.83h18.28v4H215V297H227v4H215v9.33h13.41v4H210Z"/><path class="cls-12" d="M239.31,284.83h4.45l12.37,17.66c.56.82,1.09,1.63,1.6,2.44s.92,1.55,1.26,2.2h.09q-.22-3.47-.23-6.91V284.83h4.83v29.52h-4.46l-12-17.11c-.59-.84-1.17-1.75-1.73-2.74s-1-1.86-1.45-2.64h-.1c.16,2.43.24,4.85.24,7.24v15.25h-4.83Z"/><path class="cls-13" d="M297.29,284.83V289h-8.9v25.4h-5V289h-8.76v-4.12Z"/><path class="cls-14" d="M308.22,284.83h5v17.66c0,2.94.55,5.06,1.64,6.38s2.84,2,5.25,2,4.1-.71,5.17-2.13a9.09,9.09,0,0,0,1.62-5.65V284.83h5v18q0,6.14-3.07,9.07t-8.74,2.93q-5.58,0-8.74-2.93t-3.17-9.3Z"/><path class="cls-15" d="M342.87,284.83H353a11.52,11.52,0,0,1,4.14.68,8.49,8.49,0,0,1,3,1.87,7.57,7.57,0,0,1,1.82,2.84,10,10,0,0,1,.61,3.56,8.34,8.34,0,0,1-1.92,5.46,9.16,9.16,0,0,1-1.9,1.73,10.56,10.56,0,0,1-2.13,1.15l7.59,12.23h-5.67L352.1,303h-4.36v11.34h-4.87Zm4.87,14.2h3.19a11,11,0,0,0,2.58-.29,6,6,0,0,0,2.06-.89,4.18,4.18,0,0,0,1.38-1.57,5,5,0,0,0,.49-2.32,4.89,4.89,0,0,0-1.5-3.91,6.41,6.41,0,0,0-4.31-1.29h-3.89Z"/><path class="cls-16" d="M375.22,284.83h18.27v4H380.23V297h12v4h-12v9.33h13.4v4H375.22Z"/><path class="cls-17" d="M414.83,284.36a18.76,18.76,0,0,1,8.43,1.78l-1.17,4a22,22,0,0,0-3.63-1.38,12.81,12.81,0,0,0-3.35-.45,6.51,6.51,0,0,0-4,1.08,3.53,3.53,0,0,0-1.46,3A3.35,3.35,0,0,0,410.8,295a10.37,10.37,0,0,0,3.65,1.78l2.91.94a11.5,11.5,0,0,1,5.62,3.4,7.71,7.71,0,0,1,1.78,5,8.12,8.12,0,0,1-.75,3.51,7.72,7.72,0,0,1-2.13,2.72,10.14,10.14,0,0,1-3.35,1.75,13.91,13.91,0,0,1-4.36.64,25.3,25.3,0,0,1-4.75-.45,18.27,18.27,0,0,1-4.62-1.52l1.17-3.94a20.8,20.8,0,0,0,3.94,1.48,16.06,16.06,0,0,0,4,.49,7.18,7.18,0,0,0,4.12-1.08,3.61,3.61,0,0,0,1.6-3.18,3.77,3.77,0,0,0-1.11-2.67,10.43,10.43,0,0,0-4.28-2.21l-2.77-.89a13.14,13.14,0,0,1-5.08-2.88,6.68,6.68,0,0,1-1.85-5,7.94,7.94,0,0,1,2.62-6.23Q409.82,284.36,414.83,284.36Z"/><path class="cls-18" d="M461.38,284.83h4.78l11.48,29.52h-5.25l-2.95-7.73H457.86l-2.9,7.73h-5.21Zm-2.25,17.94h8.95L466.34,298c-.53-1.31-1-2.53-1.38-3.67s-.8-2.45-1.24-3.92h-.1c-.46,1.38-.9,2.65-1.31,3.82s-.87,2.45-1.4,3.82Z"/><path class="cls-19" d="M500.3,284.36a19.24,19.24,0,0,1,8.62,1.73l-1.12,3.7a16.13,16.13,0,0,0-3.4-1.17,16.48,16.48,0,0,0-3.54-.37,11.8,11.8,0,0,0-3.82.61,8.14,8.14,0,0,0-3.18,2,9.64,9.64,0,0,0-2.21,3.51,15.13,15.13,0,0,0-.81,5.29c0,3.66.82,6.45,2.48,8.37a8.77,8.77,0,0,0,7,2.88,19.72,19.72,0,0,0,2.74-.16,11,11,0,0,0,2.18-.54V302.4h-5.35v-3.84H510V313a26.71,26.71,0,0,1-4.22,1.26,26,26,0,0,1-5.48.52,16.84,16.84,0,0,1-5.81-1,13.25,13.25,0,0,1-4.73-2.9,13.43,13.43,0,0,1-3.17-4.76,17.43,17.43,0,0,1-1.14-6.54,17.86,17.86,0,0,1,1.12-6.56,13.58,13.58,0,0,1,3.12-4.8,13,13,0,0,1,4.71-2.93A17.35,17.35,0,0,1,500.3,284.36Z"/></svg>